<?xml version="1.0" ?><svg viewBox="0 0 70.69 91.98" xmlns="http://www.w3.org/2000/svg"><defs><style>.cls-1,.cls-2{fill:#5590cc;}.cls-2{opacity:0.25;}.cls-3{fill:#fff;}.cls-3,.cls-4{stroke:#5590cc;stroke-linejoin:round;}.cls-4{fill:none;}</style></defs><title/><g data-name="Capa 2" id="Capa_2"><g data-name="Capa 1" id="Capa_1-2"><polygon class="cls-1" data-name="&lt;Trazado&gt;" id="_Trazado_" points="38.84 10.44 45.58 3.71 48.98 7.12 51.51 4.53 58.72 11.39 56.06 14.2 60.18 18.31 53.45 25.05 38.84 10.44"/><rect class="cls-2" data-name="&lt;Rect치ngulo&gt;" height="52.03" id="_Rect치ngulo_" transform="translate(52.72 -3.5) rotate(45)" width="33.08" x="14.05" y="35.88"/><rect class="cls-3" data-name="&lt;Rect치ngulo&gt;" height="52.03" id="_Rect치ngulo_2" transform="translate(31.28 -12.38) rotate(45)" width="33.08" x="14.05" y="5.55"/><rect class="cls-3" data-name="&lt;Trazado&gt;" height="33.08" id="_Trazado_2" transform="translate(-12.67 30.59) rotate(-45)" width="52.03" x="4.57" y="14.05"/><rect class="cls-3" data-name="&lt;Trazado&gt;" height="26.51" id="_Trazado_3" transform="translate(-12.01 30.71) rotate(-45)" width="44.06" x="9.04" y="16.6"/><line class="cls-3" data-name="&lt;Trazado&gt;" id="_Trazado_4" x1="38.32" x2="49.03" y1="15.88" y2="26.59"/><line class="cls-3" data-name="&lt;Trazado&gt;" id="_Trazado_5" x1="36.55" x2="41.3" y1="17.64" y2="22.39"/><line class="cls-3" data-name="&lt;Trazado&gt;" id="_Trazado_6" x1="32.92" x2="43.63" y1="21.28" y2="31.99"/><line class="cls-3" data-name="&lt;Trazado&gt;" id="_Trazado_7" x1="31.15" x2="40.32" y1="23.04" y2="32.21"/><line class="cls-3" data-name="&lt;Trazado&gt;" id="_Trazado_8" x1="27.52" x2="38.23" y1="26.68" y2="37.4"/><line class="cls-3" data-name="&lt;Trazado&gt;" id="_Trazado_9" x1="25.75" x2="29.24" y1="28.44" y2="31.93"/><line class="cls-3" data-name="&lt;Trazado&gt;" id="_Trazado_10" x1="22.11" x2="32.83" y1="32.08" y2="42.8"/><line class="cls-3" data-name="&lt;Trazado&gt;" id="_Trazado_11" x1="20.35" x2="28.1" y1="33.85" y2="41.6"/><rect class="cls-4" data-name="&lt;Trazado&gt;" height="3.1" id="_Trazado_12" transform="translate(-0.1 28.83) rotate(-45)" width="3.06" x="33.22" y="12.99"/><rect class="cls-4" data-name="&lt;Trazado&gt;" height="3.1" id="_Trazado_13" transform="translate(-5.24 26.7) rotate(-45)" width="3.06" x="28.08" y="18.13"/><rect class="cls-4" data-name="&lt;Trazado&gt;" height="3.1" id="_Trazado_14" transform="translate(-10.38 24.57) rotate(-45)" width="3.06" x="22.94" y="23.27"/><rect class="cls-4" data-name="&lt;Trazado&gt;" height="3.1" id="_Trazado_15" transform="translate(-15.52 22.44) rotate(-45)" width="3.06" x="17.8" y="28.41"/><polygon class="cls-3" data-name="&lt;Trazado&gt;" id="_Trazado_16" points="37.08 9.27 43.81 2.53 47.22 5.94 49.74 3.35 56.95 10.21 54.3 13.02 58.42 17.14 51.68 23.87 37.08 9.27"/><rect class="cls-3" data-name="&lt;Trazado&gt;" height="5.81" id="_Trazado_17" transform="translate(10.43 40.79) rotate(-47.43)" width="0.85" x="51.22" y="5.62"/><g data-name="&lt;Grupo&gt;" id="_Grupo_"><polygon class="cls-3" data-name="&lt;Trazado&gt;" id="_Trazado_18" points="40.85 54.87 66.18 29.55 67.69 31.05 42.35 56.38 37.87 59.49 40.85 54.87"/><rect class="cls-4" data-name="&lt;Trazado&gt;" height="2.16" id="_Trazado_19" transform="translate(-1.24 56.4) rotate(-45)" width="1.84" x="66.54" y="28.62"/><rect class="cls-4" data-name="&lt;Trazado&gt;" height="2.16" id="_Trazado_20" transform="translate(0.07 56.95) rotate(-45)" width="1.84" x="67.86" y="27.31"/><line class="cls-4" data-name="&lt;Trazado&gt;" id="_Trazado_21" x1="41.03" x2="42.6" y1="54.7" y2="56.26"/></g><polyline class="cls-4" data-name="&lt;Trazado&gt;" id="_Trazado_22" points="34.53 13.03 34.52 14.85 38.76 14.83"/><polyline class="cls-4" data-name="&lt;Trazado&gt;" id="_Trazado_23" points="24.25 23.34 24.24 25.16 28.48 25.14"/></g></g></svg>